<svg width="118" height="25" viewBox="0 0 118 25" fill="none" xmlns="http://www.w3.org/2000/svg">
<path d="M0.201705 19V0.818181H6.34517C7.77154 0.818181 8.9375 1.07564 9.84304 1.59055C10.7545 2.09955 11.4292 2.78906 11.8672 3.65909C12.3052 4.52912 12.5241 5.49976 12.5241 6.57102C12.5241 7.64228 12.3052 8.61589 11.8672 9.49183C11.4351 10.3678 10.7663 11.0662 9.8608 11.587C8.95526 12.1019 7.79522 12.3594 6.38068 12.3594H1.97727V10.4062H6.30966C7.28622 10.4062 8.07043 10.2376 8.66229 9.90021C9.25414 9.56285 9.68324 9.10713 9.94957 8.53303C10.2218 7.95301 10.358 7.29901 10.358 6.57102C10.358 5.84304 10.2218 5.192 9.94957 4.6179C9.68324 4.0438 9.25118 3.59399 8.65341 3.26847C8.05563 2.93703 7.26255 2.77131 6.27415 2.77131H2.40341V19H0.201705ZM17.1362 24.1136C16.7811 24.1136 16.4644 24.084 16.1863 24.0249C15.9081 23.9716 15.7157 23.9183 15.6092 23.8651L16.1419 22.0185C16.6509 22.1487 17.1007 22.196 17.4913 22.1605C17.8819 22.125 18.2282 21.9504 18.53 21.6367C18.8378 21.329 19.1189 20.8288 19.3734 20.1364L19.764 19.071L14.7214 5.36364H16.9941L20.7583 16.2301H20.9004L24.6646 5.36364H26.9373L21.149 20.9886C20.8886 21.6929 20.566 22.2759 20.1813 22.7376C19.7966 23.2051 19.3497 23.5514 18.8407 23.7763C18.3377 24.0012 17.7695 24.1136 17.1362 24.1136ZM34.7543 19.2841C33.4759 19.2841 32.375 18.9822 31.4517 18.3786C30.5284 17.7749 29.8182 16.9433 29.321 15.8839C28.8239 14.8245 28.5753 13.6141 28.5753 12.2528C28.5753 10.8679 28.8298 9.64571 29.3388 8.58629C29.8537 7.52095 30.5698 6.68939 31.4872 6.09162C32.4105 5.48793 33.4877 5.18608 34.7188 5.18608C35.6776 5.18608 36.5417 5.36364 37.3111 5.71875C38.0805 6.07386 38.7108 6.57102 39.2021 7.21023C39.6933 7.84943 39.9981 8.59517 40.1165 9.44744H38.0213C37.8615 8.82599 37.5064 8.27557 36.956 7.79616C36.4115 7.31084 35.6776 7.06818 34.7543 7.06818C33.9375 7.06818 33.2214 7.28125 32.6058 7.70739C31.9962 8.1276 31.5198 8.72242 31.1765 9.49183C30.8391 10.2553 30.6705 11.152 30.6705 12.1818C30.6705 13.2353 30.8362 14.1527 31.1676 14.9339C31.505 15.7152 31.9785 16.3219 32.5881 16.7539C33.2036 17.186 33.9257 17.402 34.7543 17.402C35.2988 17.402 35.793 17.3073 36.2369 17.1179C36.6808 16.9285 37.0566 16.6562 37.3643 16.3011C37.6721 15.946 37.8911 15.5199 38.0213 15.0227H40.1165C39.9981 15.8277 39.7051 16.5527 39.2376 17.1978C38.7759 17.837 38.1634 18.346 37.3999 18.7248C36.6423 19.0977 35.7604 19.2841 34.7543 19.2841ZM54.1523 19L47.9023 10.6548H45.6651V19H43.4634V0.818181H45.6651V8.7017H46.6239L53.9038 0.818181H56.5316L49.1808 8.80824L56.7802 19H54.1523ZM63.3542 19.3196C62.4901 19.3196 61.7059 19.1568 61.0016 18.8313C60.2973 18.4999 59.738 18.0234 59.3237 17.402C58.9094 16.7746 58.7022 16.017 58.7022 15.1293C58.7022 14.348 58.8561 13.7147 59.1639 13.2294C59.4717 12.7382 59.883 12.3535 60.3979 12.0753C60.9128 11.7971 61.481 11.59 62.1025 11.4538C62.7298 11.3118 63.3601 11.1993 63.9934 11.1165C64.822 11.0099 65.4938 10.93 66.0087 10.8768C66.5295 10.8176 66.9083 10.7199 67.1451 10.5838C67.3877 10.4477 67.5091 10.2109 67.5091 9.87358V9.80256C67.5091 8.92661 67.2694 8.24598 66.79 7.76065C66.3165 7.27533 65.5974 7.03267 64.6326 7.03267C63.6324 7.03267 62.8482 7.25166 62.28 7.68963C61.7118 8.1276 61.3123 8.59517 61.0815 9.09233L59.0929 8.3821C59.448 7.5535 59.9215 6.90838 60.5133 6.44673C61.1111 5.97917 61.7621 5.65365 62.4664 5.47017C63.1767 5.28078 63.8751 5.18608 64.5616 5.18608C64.9996 5.18608 65.5027 5.23935 66.0708 5.34588C66.6449 5.4465 67.1983 5.6566 67.731 5.97621C68.2696 6.29581 68.7164 6.77817 69.0716 7.4233C69.4267 8.06842 69.6042 8.93253 69.6042 10.0156V19H67.5091V17.1534H67.4025C67.2605 17.4493 67.0237 17.766 66.6923 18.1033C66.3609 18.4407 65.9199 18.7277 65.3695 18.9645C64.8191 19.2012 64.1473 19.3196 63.3542 19.3196ZM63.6738 17.4375C64.5024 17.4375 65.2008 17.2747 65.769 16.9492C66.3431 16.6237 66.7752 16.2035 67.0652 15.6886C67.3611 15.1737 67.5091 14.6321 67.5091 14.0639V12.1463C67.4203 12.2528 67.225 12.3505 66.9231 12.4393C66.6272 12.5221 66.2839 12.5961 65.8933 12.6612C65.5086 12.7204 65.1328 12.7737 64.7658 12.821C64.4048 12.8625 64.1118 12.898 63.8869 12.9276C63.3424 12.9986 62.8334 13.114 62.3599 13.2738C61.8923 13.4277 61.5136 13.6615 61.2235 13.9751C60.9395 14.2829 60.7974 14.7031 60.7974 15.2358C60.7974 15.9638 61.0667 16.5142 61.6053 16.8871C62.1498 17.254 62.8393 17.4375 63.6738 17.4375ZM80.8857 16.1591L85.6443 5.36364H87.6329L81.738 19H80.0335L74.2451 5.36364H76.1982L80.8857 16.1591ZM75.5235 5.36364V19H73.4284V5.36364H75.5235ZM86.248 19V5.36364H88.3431V19H86.248ZM94.2735 15.9105L100.843 5.36364H103.258V19H101.163V8.45312L94.6286 19H92.1784V5.36364H94.2735V15.9105ZM116.222 11.223V13.1761H108.693V11.223H116.222ZM109.191 5.36364V19H107.095V5.36364H109.191ZM117.82 5.36364V19H115.725V5.36364H117.82Z" fill="#EFC3A3"/>
</svg>
