<svg width="19" height="19" viewBox="0 0 19 19" fill="none" xmlns="http://www.w3.org/2000/svg">
<g clip-path="url(#clip0_59_4686)">
<path d="M6.33366 17.4173C6.77088 17.4173 7.12533 17.0629 7.12533 16.6257C7.12533 16.1884 6.77088 15.834 6.33366 15.834C5.89643 15.834 5.54199 16.1884 5.54199 16.6257C5.54199 17.0629 5.89643 17.4173 6.33366 17.4173Z" stroke="white" stroke-width="1.58333" stroke-linecap="round" stroke-linejoin="round"/>
<path d="M15.0417 17.4173C15.4789 17.4173 15.8333 17.0629 15.8333 16.6257C15.8333 16.1884 15.4789 15.834 15.0417 15.834C14.6044 15.834 14.25 16.1884 14.25 16.6257C14.25 17.0629 14.6044 17.4173 15.0417 17.4173Z" stroke="white" stroke-width="1.58333" stroke-linecap="round" stroke-linejoin="round"/>
<path d="M1.62305 1.62305H3.20638L5.31221 11.4555C5.38946 11.8156 5.58983 12.1375 5.87882 12.3659C6.16781 12.5942 6.52735 12.7146 6.89555 12.7064H14.638C14.9984 12.7058 15.3478 12.5823 15.6284 12.3563C15.9091 12.1303 16.1043 11.8154 16.1818 11.4635L17.488 5.58138H4.05346" stroke="white" stroke-width="1.58333" stroke-linecap="round" stroke-linejoin="round"/>
</g>
<defs>
<clipPath id="clip0_59_4686">
<rect width="19" height="19" fill="white"/>
</clipPath>
</defs>
</svg>
