<svg width="20" height="20" viewBox="0 0 20 20" fill="none" xmlns="http://www.w3.org/2000/svg">
<path fill-rule="evenodd" clip-rule="evenodd" d="M4.96293 12.3761L1.11198 11.0847L0.928596 10.9949L0.663282 10.835L0.440887 10.636L0.277016 10.4487L0.163867 10.277L0.0702271 10.0546L0.0273087 9.92977L0.00389862 9.78931V9.41865L0.0312104 9.27819L0.0858339 9.11042L0.171671 8.94655L0.277016 8.79438L0.44869 8.611L0.604757 8.48615L0.780333 8.3691L0.905186 8.29497L1.04955 8.22864L1.23683 8.1545L1.66992 7.96332L5.45844 6.37144L8.6149 5.03706L17.8229 1.1666L18.1779 1.06125L18.2872 1.04175L18.5096 1.01443H18.6539L18.888 1.04175L19.0558 1.08857L19.2275 1.1627L19.3445 1.23293L19.5162 1.34998L19.6332 1.47483L19.7113 1.56067L19.8088 1.69723L19.8868 1.83379L19.961 2.03667L19.9961 2.28638V2.76629L19.9532 3.05891L17.0659 17.8229L16.9645 18.0336L16.8396 18.2364L16.6992 18.4198L16.5041 18.6071L16.3285 18.7281L16.1529 18.8295L15.9813 18.8997L15.7862 18.9504L15.5326 18.9895H15.0722L14.8849 18.97L14.6937 18.9231L14.3972 18.8022L13.9095 18.4471L12.419 17.2805L10.675 15.9423L8.43933 17.9789L8.22864 18.1038L8.04526 18.174L7.9243 18.2013L7.79555 18.2208H7.58486L7.31564 18.174L7.14787 18.1038L6.99961 18.0179L6.92157 17.9516L6.82403 17.8463L6.71869 17.7175L6.63675 17.5927L6.54311 17.4015L6.44557 17.183L4.96293 12.3761ZM7.15177 7.36637L1.75965 9.62934L4.53765 10.5657L6.23488 11.1432L15.4389 5.43113L15.6028 5.33749L15.6964 5.29848L15.833 5.26336L15.9579 5.27117L16.0125 5.31408L16.0593 5.37651L16.0788 5.48186L16.0593 5.61061L15.9969 5.70425L14.2177 7.36637L11.1549 10.2029L8.42372 12.7507L7.84627 16.4027L10.5852 13.9173L15.0917 17.3469L15.3024 17.4444H15.4155L15.4819 17.4132L15.5599 17.3313L15.6262 17.0269L18.4315 2.61802H18.3808L7.15177 7.36637Z" fill="black"/>
</svg>
